<mxfile host="app.diagrams.net" modified="2023-05-01T06:59:00.305Z" agent="Mozilla/5.0 (Windows NT 10.0; Win64; x64) AppleWebKit/537.36 (KHTML, like Gecko) Chrome/112.0.0.0 Safari/537.36" etag="99bg2yxOnthyNTpgaaN_" version="21.2.1" type="google">
  <diagram id="C5RBs43oDa-KdzZeNtuy" name="Page-1">
    <mxGraphModel grid="1" page="1" gridSize="10" guides="1" tooltips="1" connect="1" arrows="1" fold="1" pageScale="1" pageWidth="827" pageHeight="1169" math="0" shadow="0">
      <root>
        <mxCell id="WIyWlLk6GJQsqaUBKTNV-0" />
        <mxCell id="WIyWlLk6GJQsqaUBKTNV-1" parent="WIyWlLk6GJQsqaUBKTNV-0" />
        <mxCell id="sF-l01rbhhqzVvnrssiV-11" value="" style="edgeStyle=orthogonalEdgeStyle;rounded=0;orthogonalLoop=1;jettySize=auto;html=1;" edge="1" parent="WIyWlLk6GJQsqaUBKTNV-1" source="WIyWlLk6GJQsqaUBKTNV-3" target="sF-l01rbhhqzVvnrssiV-0">
          <mxGeometry relative="1" as="geometry" />
        </mxCell>
        <mxCell id="WIyWlLk6GJQsqaUBKTNV-3" value="GitHub " style="rounded=1;whiteSpace=wrap;html=1;fontSize=12;glass=0;strokeWidth=1;shadow=0;" vertex="1" parent="WIyWlLk6GJQsqaUBKTNV-1">
          <mxGeometry x="130" y="70" width="134" height="50" as="geometry" />
        </mxCell>
        <mxCell id="sF-l01rbhhqzVvnrssiV-17" value="" style="edgeStyle=orthogonalEdgeStyle;rounded=0;orthogonalLoop=1;jettySize=auto;html=1;" edge="1" parent="WIyWlLk6GJQsqaUBKTNV-1" source="WIyWlLk6GJQsqaUBKTNV-7" target="sF-l01rbhhqzVvnrssiV-15">
          <mxGeometry relative="1" as="geometry" />
        </mxCell>
        <mxCell id="WIyWlLk6GJQsqaUBKTNV-7" value="Dockerize the Node.js App" style="rounded=1;whiteSpace=wrap;html=1;fontSize=12;glass=0;strokeWidth=1;shadow=0;" vertex="1" parent="WIyWlLk6GJQsqaUBKTNV-1">
          <mxGeometry x="320" y="180" width="160" height="50" as="geometry" />
        </mxCell>
        <mxCell id="sF-l01rbhhqzVvnrssiV-12" value="" style="edgeStyle=orthogonalEdgeStyle;rounded=0;orthogonalLoop=1;jettySize=auto;html=1;" edge="1" parent="WIyWlLk6GJQsqaUBKTNV-1" source="sF-l01rbhhqzVvnrssiV-0" target="WIyWlLk6GJQsqaUBKTNV-7">
          <mxGeometry relative="1" as="geometry" />
        </mxCell>
        <mxCell id="sF-l01rbhhqzVvnrssiV-0" value="Jenkins" style="rounded=1;whiteSpace=wrap;html=1;fontSize=12;glass=0;strokeWidth=1;shadow=0;" vertex="1" parent="WIyWlLk6GJQsqaUBKTNV-1">
          <mxGeometry x="320" y="70" width="160" height="50" as="geometry" />
        </mxCell>
        <mxCell id="sF-l01rbhhqzVvnrssiV-14" value="(1) Build and Test" style="text;whiteSpace=wrap;html=1;" vertex="1" parent="WIyWlLk6GJQsqaUBKTNV-1">
          <mxGeometry x="401" y="134" width="100" height="30" as="geometry" />
        </mxCell>
        <mxCell id="sF-l01rbhhqzVvnrssiV-15" value=" EC2&amp;nbsp;(Docker Host)" style="rounded=1;whiteSpace=wrap;html=1;fontSize=12;glass=0;strokeWidth=1;shadow=0;" vertex="1" parent="WIyWlLk6GJQsqaUBKTNV-1">
          <mxGeometry x="320" y="290" width="160" height="50" as="geometry" />
        </mxCell>
        <mxCell id="sF-l01rbhhqzVvnrssiV-16" value="(2) Deploy to EC2" style="text;whiteSpace=wrap;html=1;" vertex="1" parent="WIyWlLk6GJQsqaUBKTNV-1">
          <mxGeometry x="402" y="242" width="100" height="30" as="geometry" />
        </mxCell>
        <mxCell id="sF-l01rbhhqzVvnrssiV-19" value="" style="edgeStyle=orthogonalEdgeStyle;rounded=0;orthogonalLoop=1;jettySize=auto;html=1;" edge="1" parent="WIyWlLk6GJQsqaUBKTNV-1" target="sF-l01rbhhqzVvnrssiV-20">
          <mxGeometry relative="1" as="geometry">
            <mxPoint x="399" y="340" as="sourcePoint" />
          </mxGeometry>
        </mxCell>
        <mxCell id="sF-l01rbhhqzVvnrssiV-25" value="" style="edgeStyle=orthogonalEdgeStyle;rounded=0;orthogonalLoop=1;jettySize=auto;html=1;" edge="1" parent="WIyWlLk6GJQsqaUBKTNV-1" source="sF-l01rbhhqzVvnrssiV-20" target="sF-l01rbhhqzVvnrssiV-23">
          <mxGeometry relative="1" as="geometry" />
        </mxCell>
        <mxCell id="sF-l01rbhhqzVvnrssiV-20" value="Node.js Container" style="rounded=1;whiteSpace=wrap;html=1;fontSize=12;glass=0;strokeWidth=1;shadow=0;" vertex="1" parent="WIyWlLk6GJQsqaUBKTNV-1">
          <mxGeometry x="319" y="400" width="160" height="50" as="geometry" />
        </mxCell>
        <mxCell id="sF-l01rbhhqzVvnrssiV-21" value="(3) Check Health" style="text;whiteSpace=wrap;html=1;" vertex="1" parent="WIyWlLk6GJQsqaUBKTNV-1">
          <mxGeometry x="401" y="352" width="100" height="30" as="geometry" />
        </mxCell>
        <mxCell id="sF-l01rbhhqzVvnrssiV-23" value="Slack or Email sercice" style="rounded=1;whiteSpace=wrap;html=1;fontSize=12;glass=0;strokeWidth=1;shadow=0;" vertex="1" parent="WIyWlLk6GJQsqaUBKTNV-1">
          <mxGeometry x="319" y="498" width="160" height="50" as="geometry" />
        </mxCell>
        <mxCell id="sF-l01rbhhqzVvnrssiV-24" value="(4) Check Health" style="text;whiteSpace=wrap;html=1;" vertex="1" parent="WIyWlLk6GJQsqaUBKTNV-1">
          <mxGeometry x="402" y="460" width="100" height="30" as="geometry" />
        </mxCell>
        <mxCell id="sF-l01rbhhqzVvnrssiV-28" value="simple-diagram-finel-exzam.drawio.png" style="swimlane;whiteSpace=wrap;html=1;" vertex="1" parent="WIyWlLk6GJQsqaUBKTNV-1">
          <mxGeometry x="50" y="20" width="750" height="610" as="geometry" />
        </mxCell>
      </root>
    </mxGraphModel>
  </diagram>
</mxfile>
